<svg width="137" height="44" viewBox="0 0 137 44" fill="none" xmlns="http://www.w3.org/2000/svg">
<g clip-path="url(#clip0_1391_282)">
<path d="M40 0H9C4.02944 0 0 4.02944 0 9V35C0 39.9706 4.02944 44 9 44H40C44.9706 44 49 39.9706 49 35V9C49 4.02944 44.9706 0 40 0Z" fill="black"/>
<g clip-path="url(#clip1_1391_282)">
<path d="M18.5852 8.28564L18.715 26.5224L17.7248 26.5294L17.6018 9.23078L14.5532 9.25231L14.781 8.31273L18.5852 8.28564Z" fill="white"/>
<path d="M38.3662 21.0126C38.369 21.8978 38.228 22.6837 37.9433 23.3702C37.6589 24.0563 37.2662 24.6431 36.7648 25.1306C36.2634 25.6178 35.6789 25.9881 35.0114 26.2417C34.3442 26.495 33.6374 26.6228 32.8912 26.6251L29.2475 26.6362L29.2447 25.6466L32.8621 25.6355C33.5041 25.6337 34.0937 25.5235 34.6308 25.3049C35.1683 25.0865 35.6317 24.7728 36.0211 24.3639C36.4103 23.9553 36.7082 23.4686 36.9148 22.9042C37.1213 22.34 37.2233 21.7105 37.2211 21.016C37.2192 20.3396 37.1134 19.7153 36.9037 19.1431C36.694 18.5709 36.3975 18.086 36.0141 17.6883C35.6308 17.2902 35.1614 16.9791 34.6058 16.7549C34.0503 16.531 33.4339 16.42 32.7572 16.4223C32.0978 16.4242 31.4909 16.5431 30.9364 16.7792C30.3817 17.015 29.9053 17.3244 29.5072 17.7077C29.1089 18.0907 28.8023 18.5383 28.5871 19.0508C28.3718 19.5633 28.2648 20.0886 28.2662 20.6264L28.3058 33.9785L27.2128 33.9813L27.1739 20.7334C27.1714 20.0047 27.295 19.3233 27.5447 18.6889C27.7947 18.0547 28.1617 17.4942 28.6461 17.007C29.1308 16.52 29.7152 16.1367 30.3996 15.857C31.0843 15.577 31.869 15.4358 32.7537 15.4334C33.5865 15.4306 34.3504 15.5629 35.0454 15.8299C35.7402 16.0971 36.3312 16.4771 36.8183 16.9702C37.3058 17.4629 37.685 18.0514 37.9558 18.7362C38.227 19.4209 38.3638 20.1797 38.3662 21.0126Z" fill="white"/>
<path d="M28.7441 35.9299C28.7464 36.2074 28.6526 36.4423 28.4629 36.6348C28.2735 36.8268 28.04 36.9239 27.7622 36.9258C27.4848 36.928 27.2499 36.8343 27.0573 36.6445C26.8651 36.4548 26.7679 36.2212 26.7657 35.9438C26.7637 35.666 26.8575 35.4311 27.0469 35.239C27.2367 35.0469 27.4702 34.9497 27.7476 34.9473C28.0254 34.9456 28.2603 35.0395 28.4525 35.2292C28.645 35.4186 28.7422 35.6522 28.7441 35.9299Z" fill="white"/>
<path d="M19.6836 8.28742L20.7635 7.56104L20.7801 15.1409C20.7723 15.752 20.7635 16.3225 20.7537 16.852C20.744 17.3812 20.769 17.8926 20.8287 18.386C20.8885 18.8791 20.9989 19.3697 21.16 19.8576C21.3207 20.3451 21.5801 20.8553 21.9385 21.3881C22.3843 22.0506 22.9029 22.5803 23.494 22.977C24.0846 23.3739 24.7051 23.6359 25.3551 23.7631C26.0055 23.8906 26.6628 23.8879 27.3266 23.7555C27.9905 23.6227 28.6173 23.3579 29.2072 22.961C29.7978 22.5638 30.2773 22.0794 30.6454 21.5076C31.0135 20.9353 31.261 20.3242 31.3885 19.6742C31.5157 19.0239 31.5115 18.3572 31.376 17.6742C31.2407 16.9914 30.9602 16.3333 30.5343 15.6999C30.1082 15.0666 29.601 14.561 29.0121 14.1833C28.4232 13.8055 27.8037 13.553 27.1537 13.4256C26.5037 13.2984 25.8444 13.2975 25.176 13.4228C24.5079 13.5484 23.8787 13.8096 23.2885 14.2069C22.6117 14.6621 22.0744 15.1694 21.6766 15.7291L21.635 14.3138C21.8319 14.0774 22.0128 13.8879 22.178 13.7458C22.3433 13.6032 22.5197 13.469 22.7072 13.343C23.3694 12.8977 24.0968 12.5808 24.8898 12.3923C25.6832 12.2034 26.4749 12.1676 27.2648 12.2846C28.0546 12.4013 28.815 12.6845 29.5461 13.134C30.277 13.5836 30.9234 14.226 31.485 15.061C32.0081 15.8385 32.3447 16.6419 32.4947 17.4715C32.6447 18.3006 32.6332 19.1079 32.4607 19.893C32.2885 20.6782 31.9727 21.4136 31.5135 22.0992C31.0541 22.7845 30.4789 23.3595 29.7878 23.8242C29.0678 24.3086 28.3065 24.6379 27.5037 24.8124C26.701 24.9866 25.9095 25.0067 25.1294 24.8728C24.3492 24.7386 23.607 24.4433 22.9023 23.9867C22.1973 23.5298 21.5834 22.9124 21.0607 22.1346C20.7218 21.631 20.4626 21.152 20.2829 20.6978C20.1029 20.2437 19.9735 19.7715 19.8947 19.2812C19.8161 18.7906 19.7669 18.259 19.7475 17.6867C19.7277 17.1142 19.7211 16.4595 19.728 15.7228L19.6836 8.28742Z" fill="white"/>
<path d="M24.5468 18.6494C24.8468 19.0957 25.0854 19.5207 25.2628 19.9244C25.4401 20.3277 25.5729 20.7661 25.6614 21.2397C25.7503 21.7133 25.8067 22.2556 25.8309 22.8667C25.8548 23.4779 25.8711 24.2096 25.8795 25.0619L25.9239 32.4966L24.8441 33.223L24.8385 24.7265C24.8399 23.889 24.8187 23.1973 24.7753 22.6515C24.7323 22.1053 24.663 21.6445 24.5677 21.2695C24.4722 20.8945 24.347 20.5608 24.192 20.2681C24.0368 19.9751 23.8428 19.6556 23.61 19.3098C23.1937 18.6909 22.6949 18.1902 22.1135 17.8077C21.5324 17.4249 20.9166 17.1699 20.2663 17.0424C19.6163 16.9152 18.9571 16.9143 18.2885 17.0397C17.6201 17.1652 16.9904 17.4265 16.3996 17.8237C15.8099 18.2206 15.3309 18.7049 14.9628 19.2772C14.5944 19.849 14.3465 20.4602 14.2191 21.1105C14.0918 21.7605 14.0958 22.427 14.2309 23.1098C14.3661 23.7928 14.6468 24.4511 15.0732 25.0848C15.4895 25.7039 15.9883 26.2046 16.5698 26.5869C17.1514 26.9694 17.7696 27.2279 18.4246 27.3626C19.0793 27.497 19.7444 27.499 20.4198 27.3688C21.0956 27.2383 21.729 26.9744 22.3198 26.5772C22.9961 26.1221 23.533 25.615 23.9302 25.0556L23.9718 26.4702C23.7755 26.7063 23.5948 26.8959 23.4295 27.039C23.2642 27.1817 23.088 27.3159 22.901 27.4417C22.2677 27.8678 21.5625 28.1798 20.7857 28.3779C20.0093 28.5761 19.2229 28.6188 18.426 28.5063C17.6288 28.3938 16.8576 28.118 16.1121 27.6786C15.3668 27.2393 14.7036 26.5876 14.1225 25.7237C13.5994 24.9459 13.2628 24.1423 13.1128 23.3126C12.9625 22.4831 12.9736 21.6758 13.1461 20.8911C13.3189 20.106 13.6349 19.3707 14.0941 18.6855C14.5529 17.9999 15.1277 17.4247 15.8184 16.9598C16.5383 16.4756 17.3001 16.1464 18.1038 15.9723C18.9071 15.7983 19.6986 15.7784 20.4781 15.9126C21.2581 16.0464 22.0005 16.3417 22.7052 16.7987C23.4097 17.2553 24.0236 17.8721 24.5468 18.6494Z" fill="white"/>
</g>
</g>
<path d="M65.52 30.456V33H55.992V30.456H59.52V19.656H59.424L55.944 22.872V19.392L59.448 16.2H62.304V30.456H65.52ZM73.5281 33.216C72.4561 33.216 71.4561 33 70.5281 32.568C69.6161 32.136 68.8721 31.472 68.2961 30.576C67.7361 29.68 67.4561 28.568 67.4561 27.24C67.4561 25.928 67.7041 24.72 68.2001 23.616C68.6961 22.512 69.3921 21.304 70.2881 19.992L72.7841 16.2H75.6641L70.6721 23.64L70.7681 23.688L71.1281 23.304C71.9441 22.488 72.9921 22.08 74.2721 22.08C75.2801 22.08 76.1681 22.312 76.9361 22.776C77.7201 23.24 78.3201 23.888 78.7361 24.72C79.1681 25.536 79.3841 26.472 79.3841 27.528C79.3841 28.744 79.1201 29.784 78.5921 30.648C78.0641 31.496 77.3521 32.136 76.4561 32.568C75.5761 33 74.6001 33.216 73.5281 33.216ZM73.3841 30.864C74.4081 30.864 75.1921 30.536 75.7361 29.88C76.2961 29.208 76.5761 28.432 76.5761 27.552C76.5761 26.992 76.4561 26.456 76.2161 25.944C75.9761 25.432 75.6161 25.016 75.1361 24.696C74.6561 24.36 74.0721 24.192 73.3841 24.192C72.3921 24.192 71.6161 24.52 71.0561 25.176C70.5121 25.832 70.2401 26.616 70.2401 27.528C70.2401 28.424 70.5201 29.208 71.0801 29.88C71.6401 30.536 72.4081 30.864 73.3841 30.864ZM89.8791 25.464L89.7831 25.416L89.4231 25.8C89.0551 26.168 88.6231 26.464 88.1271 26.688C87.6311 26.912 87.0151 27.024 86.2791 27.024C85.2711 27.024 84.3831 26.792 83.6151 26.328C82.8471 25.864 82.2471 25.216 81.8151 24.384C81.3831 23.552 81.1671 22.608 81.1671 21.552C81.1671 20.352 81.4311 19.328 81.9591 18.48C82.5031 17.616 83.2231 16.968 84.1191 16.536C85.0151 16.088 86.0151 15.864 87.1191 15.864C88.1431 15.864 89.1111 16.08 90.0231 16.512C90.9351 16.944 91.6711 17.608 92.2311 18.504C92.8071 19.4 93.0951 20.504 93.0951 21.816C93.0951 23.144 92.8471 24.36 92.3511 25.464C91.8711 26.568 91.1751 27.792 90.2631 29.136L87.7191 33H84.5991L89.8791 25.464ZM87.1911 24.912C88.1831 24.912 88.9511 24.584 89.4951 23.928C90.0391 23.256 90.3111 22.464 90.3111 21.552C90.3111 20.656 90.0311 19.88 89.4711 19.224C88.9271 18.552 88.1591 18.216 87.1671 18.216C86.4791 18.216 85.8951 18.376 85.4151 18.696C84.9351 19.016 84.5751 19.432 84.3351 19.944C84.0951 20.44 83.9751 20.968 83.9751 21.528C83.9751 22.104 84.0951 22.648 84.3351 23.16C84.5751 23.672 84.9351 24.096 85.4151 24.432C85.9111 24.752 86.5031 24.912 87.1911 24.912ZM102.107 16.2C103.451 16.2 104.571 16.472 105.467 17.016C106.363 17.56 107.019 18.264 107.435 19.128C107.867 19.992 108.083 20.912 108.083 21.888C108.083 22.864 107.875 23.784 107.459 24.648C107.043 25.496 106.387 26.184 105.491 26.712C104.595 27.24 103.467 27.504 102.107 27.504H98.9149V33H96.0589V16.2H102.107ZM101.675 25.08C102.683 25.08 103.531 24.84 104.219 24.36C104.907 23.864 105.251 23.04 105.251 21.888C105.251 20.752 104.907 19.952 104.219 19.488C103.547 19.008 102.699 18.768 101.675 18.768H98.9149V25.08H101.675ZM110.41 20.328H113.314V33H110.41V20.328ZM111.826 18.096C111.346 18.096 110.946 17.936 110.626 17.616C110.306 17.28 110.146 16.88 110.146 16.416C110.146 15.936 110.306 15.536 110.626 15.216C110.946 14.896 111.346 14.736 111.826 14.736C112.306 14.736 112.706 14.904 113.026 15.24C113.346 15.56 113.506 15.952 113.506 16.416C113.506 16.88 113.346 17.28 113.026 17.616C112.706 17.936 112.306 18.096 111.826 18.096Z" fill="black"/>
<defs>
<clipPath id="clip0_1391_282">
<rect width="49" height="44" fill="white"/>
</clipPath>
<clipPath id="clip1_1391_282">
<rect width="36" height="36" fill="white" transform="translate(7 4)"/>
</clipPath>
</defs>
</svg>
